<?xml version="1.0" encoding="utf-8"?>
<!-- Generator: Adobe Illustrator 23.0.3, SVG Export Plug-In . SVG Version: 6.00 Build 0)  -->
<svg version="1.1" id="Layer_1" xmlns="http://www.w3.org/2000/svg" xmlns:xlink="http://www.w3.org/1999/xlink" x="0px" y="0px"
	 viewBox="0 0 1500 1500" style="enable-background:new 0 0 1500 1500;" xml:space="preserve">
<style type="text/css">
	.st0{fill:#63D9F8;}
	.st1{fill:#63D9F8;stroke:#63D9F8;stroke-width:2;stroke-miterlimit:10;}
</style>
<polygon class="st0" points="757.38,648.35 790.3,715.05 863.92,725.75 810.65,777.68 823.22,851 757.38,816.38 691.53,851 
	704.11,777.68 650.84,725.75 724.45,715.05 "/>
<path class="st1" d="M753.86,575.32c-362.94,0-657.14,78.67-657.14,175.71c0,97.04,294.2,175.71,657.14,175.71
	S1411,848.06,1411,751.03C1411,653.99,1116.8,575.32,753.86,575.32z M753.14,903.3c-314.54,0-569.52-68.17-569.52-152.28
	c0-84.1,254.98-152.28,569.52-152.28s569.52,68.17,569.52,152.28C1322.66,835.13,1067.67,903.3,753.14,903.3z"/>
<path class="st1" d="M901.87,656.34c-195.58-305.73-420.4-511.16-502.14-458.87c-81.74,52.29,10.53,342.51,206.12,648.24
	s420.4,511.16,502.14,458.87C1189.73,1252.29,1097.46,962.07,901.87,656.34z M625.2,832.48
	C455.7,567.52,375.71,315.99,446.56,270.67c70.85-45.32,265.68,132.73,435.19,397.68s249.48,516.49,178.64,561.81
	S794.7,1097.43,625.2,832.48z"/>
<path class="st1" d="M1107.99,195.13C1026.25,142.84,801.44,348.27,605.85,654s-287.86,595.95-206.12,648.24
	c81.74,52.29,306.55-153.14,502.14-458.87S1189.73,247.42,1107.99,195.13z M1060.38,269.55c70.85,45.32-9.13,296.85-178.64,561.81
	s-364.34,443.01-435.19,397.68c-70.85-45.32,9.13-296.85,178.64-561.81S989.54,224.23,1060.38,269.55z"/>
</svg>
